<mxfile host="app.diagrams.net" modified="2023-05-20T16:11:22.977Z" agent="Mozilla/5.0 (X11; Linux x86_64) AppleWebKit/537.36 (KHTML, like Gecko) Chrome/113.0.0.0 Safari/537.36" etag="4om_XQPwWub_mfraqhnM" version="21.3.2" type="github">
  <diagram name="Page-1" id="jWHOKU54WPG12NUeoIWg">
    <mxGraphModel dx="989" dy="576" grid="1" gridSize="10" guides="1" tooltips="1" connect="1" arrows="1" fold="1" page="1" pageScale="1" pageWidth="827" pageHeight="1169" math="0" shadow="0">
      <root>
        <mxCell id="0" />
        <mxCell id="1" parent="0" />
        <mxCell id="Muy5POsLKcwZ10FZL25h-3" style="edgeStyle=orthogonalEdgeStyle;rounded=0;orthogonalLoop=1;jettySize=auto;html=1;entryX=0.5;entryY=1;entryDx=0;entryDy=0;" edge="1" parent="1" source="Muy5POsLKcwZ10FZL25h-1" target="Muy5POsLKcwZ10FZL25h-2">
          <mxGeometry relative="1" as="geometry" />
        </mxCell>
        <mxCell id="Muy5POsLKcwZ10FZL25h-4" value="Send Email to User" style="edgeLabel;html=1;align=center;verticalAlign=middle;resizable=0;points=[];" vertex="1" connectable="0" parent="Muy5POsLKcwZ10FZL25h-3">
          <mxGeometry x="-0.3344" y="1" relative="1" as="geometry">
            <mxPoint as="offset" />
          </mxGeometry>
        </mxCell>
        <mxCell id="Muy5POsLKcwZ10FZL25h-11" style="edgeStyle=orthogonalEdgeStyle;rounded=0;orthogonalLoop=1;jettySize=auto;html=1;entryX=0;entryY=0.5;entryDx=0;entryDy=0;" edge="1" parent="1" source="Muy5POsLKcwZ10FZL25h-1" target="Muy5POsLKcwZ10FZL25h-10">
          <mxGeometry relative="1" as="geometry">
            <Array as="points">
              <mxPoint x="410" y="530" />
            </Array>
          </mxGeometry>
        </mxCell>
        <mxCell id="Muy5POsLKcwZ10FZL25h-12" value="Push Notification" style="edgeLabel;html=1;align=center;verticalAlign=middle;resizable=0;points=[];" vertex="1" connectable="0" parent="Muy5POsLKcwZ10FZL25h-11">
          <mxGeometry x="-0.0247" y="3" relative="1" as="geometry">
            <mxPoint x="33" y="3" as="offset" />
          </mxGeometry>
        </mxCell>
        <mxCell id="Muy5POsLKcwZ10FZL25h-1" value="Notification Service" style="ellipse;whiteSpace=wrap;html=1;aspect=fixed;" vertex="1" parent="1">
          <mxGeometry x="370" y="390" width="80" height="80" as="geometry" />
        </mxCell>
        <mxCell id="Muy5POsLKcwZ10FZL25h-2" value="Mailing service (Email)" style="rounded=0;whiteSpace=wrap;html=1;" vertex="1" parent="1">
          <mxGeometry x="550" y="270" width="120" height="60" as="geometry" />
        </mxCell>
        <mxCell id="Muy5POsLKcwZ10FZL25h-6" style="edgeStyle=orthogonalEdgeStyle;rounded=0;orthogonalLoop=1;jettySize=auto;html=1;entryX=0;entryY=0.5;entryDx=0;entryDy=0;" edge="1" parent="1" source="Muy5POsLKcwZ10FZL25h-5" target="Muy5POsLKcwZ10FZL25h-1">
          <mxGeometry relative="1" as="geometry" />
        </mxCell>
        <mxCell id="Muy5POsLKcwZ10FZL25h-7" value="Create Notification" style="edgeLabel;html=1;align=center;verticalAlign=middle;resizable=0;points=[];" vertex="1" connectable="0" parent="Muy5POsLKcwZ10FZL25h-6">
          <mxGeometry x="-0.236" y="2" relative="1" as="geometry">
            <mxPoint as="offset" />
          </mxGeometry>
        </mxCell>
        <mxCell id="Muy5POsLKcwZ10FZL25h-8" style="edgeStyle=orthogonalEdgeStyle;rounded=0;orthogonalLoop=1;jettySize=auto;html=1;entryX=0;entryY=0.5;entryDx=0;entryDy=0;" edge="1" parent="1" source="Muy5POsLKcwZ10FZL25h-5" target="Muy5POsLKcwZ10FZL25h-1">
          <mxGeometry relative="1" as="geometry">
            <Array as="points">
              <mxPoint x="180" y="430" />
            </Array>
          </mxGeometry>
        </mxCell>
        <mxCell id="Muy5POsLKcwZ10FZL25h-9" value="Add Entity to Notification&amp;nbsp;" style="edgeLabel;html=1;align=center;verticalAlign=middle;resizable=0;points=[];" vertex="1" connectable="0" parent="Muy5POsLKcwZ10FZL25h-8">
          <mxGeometry x="-0.4583" y="1" relative="1" as="geometry">
            <mxPoint as="offset" />
          </mxGeometry>
        </mxCell>
        <mxCell id="Muy5POsLKcwZ10FZL25h-5" value="Owner" style="rounded=0;whiteSpace=wrap;html=1;" vertex="1" parent="1">
          <mxGeometry x="120" y="260" width="120" height="60" as="geometry" />
        </mxCell>
        <mxCell id="Muy5POsLKcwZ10FZL25h-10" value="Web Push Notification service (Browser API)" style="rounded=0;whiteSpace=wrap;html=1;" vertex="1" parent="1">
          <mxGeometry x="610" y="500" width="120" height="60" as="geometry" />
        </mxCell>
      </root>
    </mxGraphModel>
  </diagram>
</mxfile>
